<svg width="24" height="24" viewBox="0 0 24 24" fill="none" xmlns="http://www.w3.org/2000/svg">
<rect width="24" height="24" fill="white"/>
<path d="M11.0462 6.02879C11.3399 5.09595 12.6601 5.09596 12.9538 6.02879L14.1886 9.94962C14.3915 10.594 13.9103 11.25 13.2347 11.25H10.7653C10.0897 11.25 9.60851 10.594 9.81144 9.94962L11.0462 6.02879Z" fill="#3A3B1B"/>
<path d="M6.06674 7.42467C6.3956 6.57029 7.6044 6.57029 7.93326 7.42467L9.94094 12.6408C10.1931 13.2958 9.70957 14 9.00768 14H4.99231C4.29043 14 3.80693 13.2958 4.05906 12.6408L6.06674 7.42467Z" fill="#3A3B1B"/>
<path d="M16.0667 7.42467C16.3956 6.57029 17.6044 6.57029 17.9333 7.42467L19.9409 12.6408C20.1931 13.2958 19.7096 14 19.0077 14H14.9923C14.2904 14 13.8069 13.2958 14.0591 12.6408L16.0667 7.42467Z" fill="#3A3B1B"/>
<path d="M4 15H20V15C20 16.6569 18.6569 18 17 18H7C5.34315 18 4 16.6569 4 15V15Z" fill="#3A3B1B"/>
</svg>
